<svg
	width="472"
	height="472"
	viewBox="0 0 472 472"
	xmlns="http://www.w3.org/2000/svg"
>
	<path
		fill-rule="evenodd"
		clip-rule="evenodd"
		d="M341.301 29.3C376.201 29.3 408.901 42.8 433.601 67.5C458.301 92.2 471.801 125 471.701 159.9C471.701 194.8 458.101 227.6 433.401 252.3L245.201 439.8C242.601 442.4 239.101 443.7 235.701 443.7C232.301 443.7 228.801 442.3 226.201 439.7L38.4005 251.9C13.7005 227.2 0.000547572 194.5 0.000547572 159.6C-0.0994525 124.7 13.5005 91.9 38.2005 67.2C62.8005 42.6 95.6005 29 130.401 29C165.301 29 198.201 42.7 222.901 67.4L236.001 80.5L248.901 67.6C273.601 42.9 306.401 29.3 341.301 29.3Z"
	/>
</svg>